<?xml version="1.0" standalone="no"?>
<!DOCTYPE svg PUBLIC "-//W3C//DTD SVG 20010904//EN"
 "http://www.w3.org/TR/2001/REC-SVG-20010904/DTD/svg10.dtd">
<svg version="1.0" xmlns="http://www.w3.org/2000/svg"
 width="300.000000pt" height="300.000000pt" viewBox="0 0 300.000000 300.000000"
 preserveAspectRatio="xMidYMid meet">
<metadata>
Created by potrace 1.14, written by Peter Selinger 2001-2017
</metadata>
<g transform="translate(0.000000,300.000000) scale(0.100000,-0.100000)"
fill="#000000" stroke="none">
<path d="M783 2201 l-713 -716 715 -715 715 -715 717 718 718 717 -715 715
c-393 393 -717 714 -720 713 -3 -1 -326 -323 -717 -717z m680 -94 c26 -11 37
-11 62 -1 17 7 62 13 101 14 83 0 105 -14 86 -55 -11 -23 -17 -25 -76 -25
-104 0 -96 21 -96 -245 l0 -234 28 -3 c24 -3 27 -7 27 -38 0 -31 -3 -35 -27
-38 l-28 -3 0 -234 c0 -266 -9 -244 99 -251 79 -5 103 -31 64 -69 -14 -14 -30
-16 -83 -13 -36 3 -79 12 -95 21 -26 13 -33 13 -59 0 -33 -17 -123 -28 -159
-19 -27 6 -40 30 -32 56 4 13 21 18 73 23 112 9 102 -14 102 253 l0 234 -25 0
c-30 0 -46 27 -34 58 6 15 17 22 34 22 l25 0 0 234 c0 267 8 246 -96 246 -59
0 -65 2 -76 25 -18 41 3 55 84 55 38 0 83 -6 101 -13z"/>
</g>
</svg>
